HIERARCHY
ROOT Hips
{
	OFFSET 0.00000 0.00000 0.00000
	CHANNELS 6 Xposition Yposition Zposition Zrotation Yrotation Xrotation 
	JOINT LHipJoint
	{
		OFFSET 0 0 0
		CHANNELS 3 Zrotation Yrotation Xrotation
		JOINT LeftHip
		{
			OFFSET 1.88772 -1.62769 0.85636
			CHANNELS 3 Zrotation Yrotation Xrotation
			JOINT LeftKnee
			{
				OFFSET 2.39836 -6.58946 0.00000
				CHANNELS 3 Zrotation Yrotation Xrotation
				JOINT LeftAnkle
				{
					OFFSET 2.78523 -7.65237 0.00000
					CHANNELS 3 Zrotation Yrotation Xrotation
					JOINT LeftToe
					{
						OFFSET 0.19551 -0.53715 1.90694
						CHANNELS 3 Zrotation Yrotation Xrotation
						End Site
						{
							OFFSET 0.00000 -0.00000 0.99735
						}
					}
				}
			}
		}
	}
	JOINT RHipJoint
	{
		OFFSET 0 0 0
		CHANNELS 3 Zrotation Yrotation Xrotation
		JOINT RightHip
		{
			OFFSET -1.74282 -1.62769 0.85636
			CHANNELS 3 Zrotation Yrotation Xrotation
			JOINT RightKnee
			{
				OFFSET -2.36062 -6.48575 0.00000
				CHANNELS 3 Zrotation Yrotation Xrotation
				JOINT RightAnkle
				{
					OFFSET -2.76258 -7.59014 0.00000
					CHANNELS 3 Zrotation Yrotation Xrotation
					JOINT RightToe
					{
						OFFSET -0.19308 -0.53048 2.03952
						CHANNELS 3 Zrotation Yrotation Xrotation
						End Site
						{
							OFFSET -0.00000 -0.00000 1.06031
						}
					}
				}
			}
		}
	}
	JOINT lowerback
	{
		OFFSET 0 0 0
		CHANNELS 3 Zrotation Yrotation Xrotation
		JOINT Chest
		{
			OFFSET -0.08299 2.03160 -0.30721
			CHANNELS 3 Zrotation Yrotation Xrotation
			JOINT Chest2
			{
				OFFSET -0.01030 2.00603 0.13891
				CHANNELS 3 Zrotation Yrotation Xrotation
				JOINT lowerneck
				{
					OFFSET 0 0 0
					CHANNELS 3 Zrotation Yrotation Xrotation
					JOINT Neck
					{
						OFFSET 0.04282 1.69578 0.19991
						CHANNELS 3 Zrotation Yrotation Xrotation
						JOINT Head
						{
							OFFSET -0.08665 1.66622 -0.03785
							CHANNELS 3 Zrotation Yrotation Xrotation
							End Site
							{
								OFFSET -0.03699 1.83329 -0.04094
							}
						}
					}
				}
				JOINT LeftCollar
				{
					OFFSET 0 0 0
					CHANNELS 3 Zrotation Yrotation Xrotation
					JOINT LeftShoulder
					{
						OFFSET 3.04219 1.50803 -0.05347
CHANNELS 3 Zrotation Xrotation Yrotation
						JOINT LeftElbow
						{
OFFSET 0 -5.791990 0.000000
CHANNELS 3 Zrotation Xrotation Yrotation
							JOINT LeftWrist
							{
OFFSET 0 -3.499080 0.000000
CHANNELS 3 Zrotation Xrotation Yrotation
								JOINT lhand
								{
									OFFSET 0 0 0
CHANNELS 3 Zrotation Xrotation Yrotation
									JOINT LFingers
									{
OFFSET 0 -0.593860 0.000000
CHANNELS 3 Zrotation Xrotation Yrotation
										End Site
										{
OFFSET 0 -0.478790 0.000000
										}
									}
								}
								JOINT LThumb
								{
OFFSET 0 0.000000 0.000000
CHANNELS 3 Zrotation Xrotation Yrotation
									End Site
									{
OFFSET 0 -0.486100 0.486100
									}
								}
							}
						}
					}
				}
				JOINT RightCollar
				{
					OFFSET 0 0 0
					CHANNELS 3 Zrotation Yrotation Xrotation
					JOINT RightShoulder
					{
						OFFSET -3.30316 1.18853 0.11175
CHANNELS 3 Zrotation Xrotation Yrotation
						JOINT RightElbow
						{
OFFSET 0 -5.737990 0.000000
CHANNELS 3 Zrotation Xrotation Yrotation
							JOINT RightWrist
							{
OFFSET 0 -3.579160 -0.000000
CHANNELS 3 Zrotation Xrotation Yrotation
								JOINT rhand
								{
									OFFSET 0 0 0
CHANNELS 3 Zrotation Xrotation Yrotation
									JOINT RFingers
									{
OFFSET 0 -0.615580 0.000000
CHANNELS 3 Zrotation Xrotation Yrotation
										End Site
										{
OFFSET 0 -0.496290 0.000000
										}
									}
								}
								JOINT RThumb
								{
OFFSET 0 0.000000 0.000000
CHANNELS 3 Zrotation Xrotation Yrotation
									End Site
									{
OFFSET 0 -0.503870 0.503870
									}
								}
							}
						}
					}
				}
			}
		}
	}
}
MOTION
Frames: 11
Frame Time: 0.008333333333333333
16.442400 16.958900 -25.580700 5.060000 -43.403800 1.154700 0.000000 0.000000 0.000000 -19.419000 -11.311500 -13.871000 3.119800 10.886500 31.898000 1.795300 -0.276300 -25.278800 0.001900 -0.280200 -0.769900 0.000000 0.000000 0.000000 13.281800 17.744200 -9.646300 -2.937400 -10.593000 30.919200 -1.923600 -12.120800 -32.908900 -0.257200 -3.262900 9.011400 -6.413200 1.391900 4.377600 0.170400 1.325100 -5.242500 3.627000 1.025300 -8.162500 3.764900 5.635400 -5.654600 -7.874500 7.947900 8.308900 -2.586400 3.676100 3.872500 -0.000000 -0.000000 0.000000 5.497600 5.204700 -23.156700 16.043300 -25.579300 3.664600 13.495600 -21.469300 23.302300 0.000000 0.000000 0.000000 -7.125000 0.000000 0.000000 -9.697200 6.373100 -8.689300 -0.000000 -0.000000 0.000000 -14.544700 17.217100 46.850900 -25.893500 -37.103300 -8.823300 -15.689400 3.617300 28.510800 0.000000 0.000000 0.000000 7.125000 0.000000 -0.000000 16.909800 58.605200 -5.729800
16.432387 16.965346 -25.554004 4.046413 -43.150669 2.011933 0.000000 0.000000 0.000000 -18.657393 -11.090884 -15.005140 3.216399 11.037336 32.405841 1.806584 -0.021714 -25.441995 0.005535 0.217672 0.598657 0.000000 0.000000 0.000000 14.016476 17.557460 -9.295199 -2.806880 -10.375671 30.201953 -2.010846 -11.670058 -33.087962 -0.609104 -4.993446 13.890328 -5.702591 1.115635 3.819897 0.305475 1.071034 -4.919951 3.411378 0.838198 -7.434867 3.610059 5.677861 -5.615230 -7.124049 7.881846 7.115499 -2.603786 3.714312 3.827516 0.000000 0.000000 0.000000 4.829669 5.674894 -21.193952 16.334345 -25.971828 3.791206 12.609075 -19.412347 23.421935 0.000000 0.000000 0.000000 -7.125000 0.000000 0.000000 -10.251545 6.360956 -9.204881 0.000000 0.000000 0.000000 -13.961410 16.876660 45.615721 -25.300676 -36.509810 -8.468187 -18.034615 5.752443 29.944430 0.000000 0.000000 0.000000 7.125000 0.000000 0.000000 15.365310 60.530648 -5.898698
16.432514 16.931134 -25.552041 3.728056 -42.843613 2.218677 0.000000 0.000000 0.000000 -18.297636 -11.733905 -14.500969 3.244059 11.080028 32.550274 1.874490 -1.383838 -25.510451 0.042275 1.278295 3.515266 0.000000 0.000000 0.000000 14.324569 17.273719 -9.288236 -2.795022 -10.355572 30.136187 -1.859953 -12.368963 -32.721342 -0.302905 -3.538384 9.781613 -5.419338 0.941960 3.412834 0.076309 0.887669 -4.443077 3.038225 0.697298 -6.653432 3.266592 4.691149 -4.085513 -7.287308 6.429335 3.976544 -2.715051 3.064177 2.377870 0.000000 0.000000 0.000000 5.449306 5.439358 -20.389969 16.119243 -25.681991 3.697563 10.424997 -19.196614 23.452183 0.000000 0.000000 0.000000 -7.125000 0.000000 0.000000 -11.601886 6.578749 -10.417515 0.000000 0.000000 0.000000 -12.261778 16.101730 42.698177 -23.892984 -35.050653 -7.645079 -17.099033 5.328440 29.228379 0.000000 0.000000 0.000000 7.125000 0.000000 0.000000 15.888696 59.616553 -5.759575
16.423181 16.964248 -25.539671 4.250991 -43.060994 2.042447 0.000000 0.000000 0.000000 -18.739740 -11.455790 -14.384918 3.230804 11.059596 32.481121 1.864131 -1.103589 -25.515390 0.002260 0.251742 0.691620 0.000000 0.000000 0.000000 13.823884 17.562011 -9.370805 -2.794978 -10.355556 30.136028 -2.117893 -11.505471 -33.586923 -0.465005 -4.367986 12.115260 -5.680137 1.014177 2.661295 -0.406941 1.005936 -4.011026 2.682213 0.724249 -5.768636 4.195679 5.102094 -4.748538 -6.613078 6.908059 4.605683 -2.620582 3.318629 2.749298 0.000000 0.000000 0.000000 6.147947 4.869960 -19.433144 15.183664 -24.401289 3.301456 9.762766 -17.934636 23.211003 0.000000 0.000000 0.000000 -7.125000 0.000000 0.000000 -12.004853 6.886548 -10.722961 0.000000 0.000000 0.000000 -10.533379 15.898234 39.760770 -22.963956 -34.049358 -7.118109 -17.513094 6.504153 36.077585 0.000000 0.000000 0.000000 7.125000 0.000000 0.000000 21.457053 66.168705 -11.188009
16.420395 16.964032 -25.521373 4.050979 -43.230591 2.193609 0.000000 0.000000 0.000000 -18.677164 -11.273807 -14.675236 3.265235 11.112566 32.660369 1.851533 -0.017134 -25.758476 0.064105 -1.633756 -4.494541 0.000000 0.000000 0.000000 13.936437 17.218521 -9.336130 -2.745257 -10.270739 29.857893 -1.954838 -11.740886 -32.812332 -0.402525 -4.068721 11.270615 -5.609708 0.981059 2.587438 -0.330728 0.978640 -3.916043 2.726631 0.704511 -5.622698 3.965790 5.018355 -4.931978 -6.695277 6.820598 4.793060 -2.606782 3.262103 2.835066 0.000000 0.000000 0.000000 5.652221 4.747391 -16.182111 14.012878 -22.753086 2.833080 10.390250 -15.802425 23.057069 0.000000 0.000000 0.000000 -7.125000 0.000000 0.000000 -11.613592 6.972620 -10.338066 0.000000 0.000000 0.000000 -10.068072 16.517021 39.397532 -22.741103 -33.804550 -6.993781 -18.085692 6.884285 37.166488 0.000000 0.000000 0.000000 7.125000 0.000000 0.000000 22.064702 67.324605 -12.090279
16.421898 16.960736 -25.500435 3.637705 -43.521286 2.147165 0.000000 0.000000 0.000000 -18.456017 -10.919741 -14.156635 3.235480 11.066787 32.505518 1.905423 -0.527723 -25.972421 0.011396 -0.605739 -1.664696 0.000000 0.000000 0.000000 14.276493 17.152751 -9.087542 -2.782837 -10.334895 30.068196 -2.005643 -11.332878 -32.815614 -0.407144 -4.086358 11.321030 -5.206295 1.028419 2.862280 -0.195850 1.064778 -3.664997 2.633257 0.727704 -5.513981 3.063781 4.430772 -4.489741 -7.322540 6.039667 3.187487 -2.699377 2.871426 2.161051 0.000000 0.000000 0.000000 5.515122 4.882402 -14.200268 13.594744 -22.152308 2.673398 9.833563 -14.972156 23.009874 0.000000 0.000000 0.000000 -7.125000 0.000000 0.000000 -11.957250 7.077274 -10.632990 0.000000 0.000000 0.000000 -10.182948 17.154692 39.891375 -22.783361 -33.851095 -7.017256 -16.874718 5.726950 34.021824 0.000000 0.000000 0.000000 7.125000 0.000000 0.000000 20.018690 64.103651 -9.451423
16.389733 16.932683 -25.510074 6.401444 -43.342259 1.034836 0.000000 0.000000 0.000000 -20.456568 -11.158208 -14.242153 2.957818 10.626370 31.029938 1.761819 -0.784126 -24.883280 0.027189 0.948497 2.607732 0.000000 0.000000 0.000000 11.824470 17.607702 -10.799432 -3.109541 -10.870210 31.843458 -2.081246 -11.206805 -33.168472 -0.344572 -3.771026 10.433606 -7.823924 0.865128 2.164282 -0.661228 0.731791 -3.831590 3.643960 0.651386 -5.318454 3.710473 5.176819 -6.021738 -7.083723 7.074280 5.176732 -2.657209 3.342640 3.196022 0.000000 0.000000 0.000000 5.659742 5.696982 -13.489006 13.634221 -22.209344 2.688285 10.480414 -14.671939 23.041019 0.000000 0.000000 0.000000 -7.125000 0.000000 0.000000 -11.557361 6.978746 -10.284449 0.000000 0.000000 0.000000 -9.937266 17.965894 39.913272 -22.882537 -33.960118 -7.072609 -19.460759 7.814243 35.442121 0.000000 0.000000 0.000000 7.125000 0.000000 0.000000 18.592276 66.137034 -9.672068
16.384247 16.944369 -25.497997 6.420359 -43.597439 1.125423 0.000000 0.000000 0.000000 -20.516170 -11.251437 -14.010970 2.890289 10.515215 30.661923 1.796043 -0.783285 -25.128182 0.060870 1.588487 4.369785 0.000000 0.000000 0.000000 11.715446 18.009843 -10.877927 -3.145894 -10.927579 32.036023 -2.400820 -9.882549 -34.101034 -0.669020 -5.229459 14.564549 -7.822219 0.864820 2.019284 -0.740001 0.742293 -3.771548 3.562547 0.648105 -5.171447 3.507954 5.309256 -6.459312 -6.682136 7.253775 5.548597 -2.462922 3.427595 3.386738 0.000000 0.000000 0.000000 5.944838 6.011424 -13.360129 13.473024 -21.976358 2.627690 9.928751 -14.430467 22.824861 0.000000 0.000000 0.000000 -7.125000 0.000000 0.000000 -11.894646 7.249903 -10.533937 0.000000 0.000000 0.000000 -9.699751 18.118167 39.838542 -22.410509 -33.437850 -6.810708 -18.425262 6.358829 30.763667 0.000000 0.000000 0.000000 7.125000 0.000000 0.000000 15.507411 61.425402 -6.263037
16.361330 16.935992 -25.491152 9.259767 -43.792508 -0.612642 0.000000 0.000000 0.000000 -22.740400 -10.864590 -13.778230 2.742747 10.266421 29.843926 1.788186 0.119769 -25.359032 0.028514 -0.747442 -2.055426 0.000000 0.000000 0.000000 9.277783 18.111654 -11.625803 -3.298466 -11.163026 32.831981 -2.463862 -9.368611 -34.133015 -0.681198 -5.276286 14.698459 -10.160271 0.824423 1.649005 -1.266154 0.585777 -3.848583 4.327622 0.643419 -5.077247 3.223888 4.544828 -4.966151 -7.409868 6.204472 3.642660 -2.741563 2.936803 2.421753 0.000000 0.000000 0.000000 5.878225 6.277899 -11.846073 13.307916 -21.736720 2.566177 9.471319 -12.685923 23.532529 0.000000 0.000000 0.000000 -7.125000 0.000000 0.000000 -12.190886 6.600196 -10.966244 0.000000 0.000000 0.000000 -9.757317 18.487847 41.369790 -22.567060 -33.611149 -6.897495 -23.432505 8.155014 36.029229 0.000000 0.000000 0.000000 7.125000 0.000000 0.000000 14.111269 67.897013 -7.728919
16.432271 16.965174 -25.455604 2.734678 -44.252404 3.109168 0.000000 0.000000 0.000000 -17.793181 -10.538010 -14.445857 3.114545 10.877833 31.869367 1.867111 -0.060264 -25.850848 0.003633 -0.040129 -0.110293 0.000000 0.000000 0.000000 14.692717 17.574404 -9.717726 -2.882209 -10.501427 30.616622 -2.203812 -9.941444 -33.026806 -0.632871 -5.086492 14.156195 -4.349204 0.879750 2.957697 -0.223650 0.907085 -3.683237 2.134503 0.615133 -5.551394 3.016404 5.064491 -6.491815 -6.250765 6.943761 5.691173 -2.244375 3.275992 3.377108 0.000000 0.000000 0.000000 6.146730 6.080855 -12.295988 13.313353 -21.744576 2.568234 10.072003 -13.254408 23.282919 0.000000 0.000000 0.000000 -7.125000 0.000000 0.000000 -11.815552 6.783357 -10.570206 0.000000 0.000000 0.000000 -9.916426 18.168317 40.855607 -22.092293 -33.081164 -6.636152 -18.208090 7.140016 35.129207 0.000000 0.000000 0.000000 7.125000 0.000000 0.000000 19.608620 65.498150 -9.881810
16.423923 16.967600 -25.456407 4.442839 -44.138790 2.375189 0.000000 0.000000 0.000000 -19.098146 -11.207177 -14.611523 3.181625 10.983420 32.223956 1.966016 0.148250 -26.603035 0.039667 -1.285507 -3.534586 0.000000 0.000000 0.000000 13.149648 17.480985 -10.070471 -2.813741 -10.387247 30.240145 -2.077843 -10.303490 -32.522595 -0.727961 -5.443338 15.179439 -5.771390 0.780495 2.465381 -0.537107 0.705769 -3.751319 2.625895 0.560724 -5.354148 3.157190 5.069456 -6.655845 -6.460243 6.950862 5.697898 -2.337507 3.271582 3.429480 0.000000 0.000000 0.000000 6.434491 6.288522 -14.296674 14.090835 -22.864373 2.863341 10.352677 -15.309144 22.298810 0.000000 0.000000 0.000000 -7.125000 0.000000 0.000000 -11.620983 7.725528 -10.170348 0.000000 0.000000 0.000000 -10.043439 17.914785 40.976090 -22.076968 -33.063864 -6.627783 -18.724375 7.570871 35.338453 0.000000 0.000000 0.000000 7.125000 0.000000 0.000000 19.235451 65.837963 -9.841019
